<svg width="16" height="16" viewBox="0 0 16 16" fill="none" xmlns="http://www.w3.org/2000/svg">
<g clip-path="url(#clip0_30519_869)">
<path fill-rule="evenodd" clip-rule="evenodd" d="M0.5 4.5C0.5 3.94772 0.947715 3.5 1.5 3.5H14.5C15.0523 3.5 15.5 3.94772 15.5 4.5V11.5C15.5 12.0523 15.0523 12.5 14.5 12.5H1.5C0.947715 12.5 0.5 12.0523 0.5 11.5V4.5ZM14.5 4.5H1.5V11.5H14.5V4.5Z" fill="#8047F8"/>
<path fill-rule="evenodd" clip-rule="evenodd" d="M8 6.5C7.17157 6.5 6.5 7.17157 6.5 8C6.5 8.82843 7.17157 9.5 8 9.5C8.82843 9.5 9.5 8.82843 9.5 8C9.5 7.17157 8.82843 6.5 8 6.5ZM5.5 8C5.5 6.61929 6.61929 5.5 8 5.5C9.38071 5.5 10.5 6.61929 10.5 8C10.5 9.38071 9.38071 10.5 8 10.5C6.61929 10.5 5.5 9.38071 5.5 8Z" fill="#8047F8"/>
<path fill-rule="evenodd" clip-rule="evenodd" d="M10.6237 3.67075C10.8056 3.46294 11.1214 3.44188 11.3293 3.62372L15.3293 7.12372C15.5371 7.30556 15.5581 7.62144 15.3763 7.82926C15.1945 8.03708 14.8786 8.05814 14.6708 7.8763L10.6708 4.3763C10.4629 4.19445 10.4419 3.87857 10.6237 3.67075Z" fill="#8047F8"/>
<path fill-rule="evenodd" clip-rule="evenodd" d="M15.3763 8.17075C15.5581 8.37857 15.5371 8.69445 15.3293 8.8763L11.3293 12.3763C11.1214 12.5581 10.8056 12.5371 10.6237 12.3293C10.4419 12.1214 10.4629 11.8056 10.6708 11.6237L14.6708 8.12372C14.8786 7.94188 15.1945 7.96294 15.3763 8.17075Z" fill="#8047F8"/>
<path fill-rule="evenodd" clip-rule="evenodd" d="M5.3763 3.67075C5.55814 3.87857 5.53708 4.19445 5.32926 4.3763L1.32926 7.8763C1.12144 8.05814 0.80556 8.03708 0.623719 7.82926C0.441877 7.62144 0.462936 7.30556 0.670755 7.12372L4.67075 3.62372C4.87857 3.44188 5.19445 3.46294 5.3763 3.67075Z" fill="#8047F8"/>
<path fill-rule="evenodd" clip-rule="evenodd" d="M0.623719 8.17075C0.80556 7.96294 1.12144 7.94188 1.32926 8.12372L5.32926 11.6237C5.53708 11.8056 5.55814 12.1214 5.3763 12.3293C5.19445 12.5371 4.87857 12.5581 4.67075 12.3763L0.670755 8.8763C0.462936 8.69445 0.441877 8.37857 0.623719 8.17075Z" fill="#574F4D"/>
</g>
<defs>
<clipPath id="clip0_30519_869">
<rect width="16" height="16" fill="white"/>
</clipPath>
</defs>
</svg>
